<svg id="Layer_1" data-name="Layer 1" xmlns="http://www.w3.org/2000/svg" viewBox="0 0 29.65 10.13"><defs><style>.cls-1{fill:#a82d23;}.cls-2{fill:#fefefe;}</style></defs><path class="cls-1" d="M14.83,10.13H.1c-.08,0-.1,0-.1-.13V.12C0,0,0,0,.1,0H29.55c.09,0,.11,0,.11.12q0,4.95,0,9.88c0,.11,0,.13-.11.13Z"/><path class="cls-2" d="M14.84.35H27.39c.28,0,.57,0,.85,0,.08,0,.1,0,.09.12a1.23,1.23,0,0,0,0,.43.82.82,0,0,0,.76.75h.1c.16,0,.16,0,.16.2,0,2.17,0,4.35,0,6.52,0,.11,0,.16-.12.15-.6,0-1,.37-1,1.11,0,.13,0,.14-.13.14H1.52c-.09,0-.14,0-.13-.14a1.4,1.4,0,0,0,0-.41A.84.84,0,0,0,.5,8.52c-.2,0-.2,0-.2-.24C.3,6.12.3,4,.29,1.81c0-.12,0-.18.13-.16a.78.78,0,0,0,.4-.06,1,1,0,0,0,.54-1c0-.21,0-.21.15-.21Z"/><path class="cls-1" d="M14.84.68H28c.05,0,.08,0,.09.09A1.14,1.14,0,0,0,29,2c.08,0,.1.05.1.15V8.06c0,.08,0,.12-.09.14a1.16,1.16,0,0,0-1,1.1c0,.13-.07.15-.16.15H1.81c-.11,0-.15,0-.18-.17a1.14,1.14,0,0,0-1-1.08c-.07,0-.08,0-.08-.13v-6C.58,2,.59,2,.66,2a1.15,1.15,0,0,0,1-1.2c0-.07,0-.09.08-.09H14.84Z"/><path class="cls-2" d="M4.2,6.16a2.9,2.9,0,0,1,0,.72.76.76,0,0,1-.68.78,2.3,2.3,0,0,1-.94-.08c-.33-.1-.44-.41-.49-.77s0-.73,0-1.09c0-.07,0-.1.08-.1H2.7c.06,0,.07,0,.07.09,0,.25,0,.51,0,.77A.35.35,0,0,0,3,6.83a.43.43,0,0,0,.5-.07.16.16,0,0,0,0-.14c0-.18,0-.36,0-.54a1.23,1.23,0,0,0-.31-.86c-.31-.33-.62-.67-.92-1A1.09,1.09,0,0,1,2,3.36C2,3,2,2.61,2,2.24a.75.75,0,0,1,.25-.61,1.12,1.12,0,0,1,.67-.29,1.42,1.42,0,0,1,.84.12.73.73,0,0,1,.39.72c0,.33,0,.65,0,1,0,.13,0,.18-.14.17H3.62c-.09,0-.12,0-.12-.14V2.47a.36.36,0,0,0-.27-.38A.49.49,0,0,0,3,2.1c-.2,0-.27.15-.26.39s0,.47,0,.7a.52.52,0,0,0,.11.33,7.92,7.92,0,0,0,.64.77c.15.16.29.32.44.47a1.1,1.1,0,0,1,.28.74C4.21,5.72,4.2,5.94,4.2,6.16Z"/><path class="cls-2" d="M23,2.88c0-.46,0-.91,0-1.35,0-.11,0-.17.12-.16a2,2,0,0,0,.35,0c.15,0,.15,0,.15.16,0,1.42,0,2.83,0,4.25,0,.52,0,1,0,1.57,0,.12,0,.17-.13.17l-.43,0s-.07,0-.07,0-.07-.07-.11,0a.7.7,0,0,1-.85-.12.92.92,0,0,1-.23-.69V3.56a.66.66,0,0,1,.46-.7A1.11,1.11,0,0,1,23,2.88Z"/><path class="cls-2" d="M11.58,7.46c0,.35,0,.69,0,1,0,.06,0,.09,0,.12L11.07,9C11,9,11,9,11,8.91l0-1.91c0-1.28,0-2.56,0-3.84,0-.32,0-.32.26-.32h.22c.07,0,.14,0,.14.11s.05,0,.07,0a1.39,1.39,0,0,1,.59-.12.65.65,0,0,1,.59.66c0,1.06,0,2.13,0,3.19a.85.85,0,0,1-.7.87A1.35,1.35,0,0,1,11.58,7.46Z"/><path class="cls-2" d="M8.47,6V4.7c0-.55,0-1.1,0-1.65,0-.13,0-.19.13-.18a2.54,2.54,0,0,0,.39,0s.09,0,.09,0,.06.09.12.07a1,1,0,0,1,.68-.08.67.67,0,0,1,.43.41,1.39,1.39,0,0,1,0,.5c0,.7,0,1.4,0,2.11a7.3,7.3,0,0,0,0,.81.82.82,0,0,1-.66.85,1.17,1.17,0,0,1-.49-.07s-.08,0-.08.07c0,.31,0,.62,0,.93a.16.16,0,0,1-.06.15L8.64,9s-.05.06-.08,0,0-.08,0-.12c0-1,0-1.93,0-2.9V6Z"/><path class="cls-2" d="M19.48,5.13c0-.54,0-1.08,0-1.62A.57.57,0,0,1,19.67,3a1.19,1.19,0,0,1,1.26-.17.73.73,0,0,1,.41.75c0,.55,0,1.11,0,1.67,0,.19,0,.19-.16.2h-1c-.12,0-.14,0-.14.19s0,.55,0,.82a.26.26,0,0,0,.18.29l.14,0c.25,0,.35-.07.36-.39,0-.11,0-.26,0-.34s.18,0,.27,0a1.94,1.94,0,0,1,.24,0q.09,0,.09.12c0,.23,0,.46,0,.69a.58.58,0,0,1-.29.5,1.2,1.2,0,0,1-1.1.11.78.78,0,0,1-.46-.81C19.47,6.14,19.48,5.64,19.48,5.13Z"/><path class="cls-2" d="M13.39,5.12c0-.56,0-1.13,0-1.69a.43.43,0,0,1,.19-.38,1.17,1.17,0,0,1,1.27-.18.74.74,0,0,1,.42.75c0,.57,0,1.14,0,1.7,0,.11,0,.16-.12.16l-1,0c-.18,0-.19,0-.19.23v.79a.49.49,0,0,0,0,.12.41.41,0,0,0,.46.2c.12,0,.2-.16.2-.33V6.29c0-.24,0-.2.17-.22h.36c.07,0,.09,0,.09.13s0,.4,0,.61a.64.64,0,0,1-.3.57,1.17,1.17,0,0,1-1.13.09.76.76,0,0,1-.43-.76Z"/><path class="cls-2" d="M24.26,5.19V3.59A.56.56,0,0,1,24.52,3a1.16,1.16,0,0,1,1.25-.11.72.72,0,0,1,.37.72c0,.56,0,1.12,0,1.69,0,.17,0,.18-.15.18l-1,0c-.14,0-.16,0-.16.19v.8c0,.18.05.26.19.31a.42.42,0,0,0,.15,0c.22,0,.33-.09.33-.35,0-.42,0-.42.35-.42s.28,0,.27.33c0,.15,0,.29,0,.44a.59.59,0,0,1-.24.49,1.15,1.15,0,0,1-1.23.11.73.73,0,0,1-.38-.7V5.19Z"/><path class="cls-2" d="M7.92,5.26c0,.52,0,1,0,1.57a.65.65,0,0,1-.28.62,1.07,1.07,0,0,1-1.21.07A.82.82,0,0,1,6,6.76C6,6,6,5.14,6,4.33c0-.21,0-.41,0-.62a.55.55,0,0,1,.14-.42,1,1,0,0,1,1-.38,1.1,1.1,0,0,1,.51.17.6.6,0,0,1,.28.55c0,.54,0,1.09,0,1.63Z"/><path class="cls-2" d="M17.68,3.87c0,.12,0,.25,0,.38s0,.14-.11.13h-.36c-.09,0-.12,0-.11-.15V3.81a.31.31,0,0,0-.21-.33.39.39,0,0,0-.37.08.23.23,0,0,0-.09.2c0,.13,0,.27,0,.41a.41.41,0,0,0,.11.24,5.68,5.68,0,0,0,.81.88.94.94,0,0,1,.3.79,5.23,5.23,0,0,0,0,.56.78.78,0,0,1-.6.87,1.4,1.4,0,0,1-.76,0,.69.69,0,0,1-.49-.76V6.17c0-.07,0-.11.08-.11a2.94,2.94,0,0,0,.42,0c.06,0,.08,0,.09.09s0,.29,0,.43a.27.27,0,0,0,.14.26.4.4,0,0,0,.42,0,.16.16,0,0,0,.07-.15c0-.11,0-.23,0-.33a.6.6,0,0,0-.19-.56c-.26-.25-.51-.52-.78-.76a.88.88,0,0,1-.27-.64c0-.28,0-.56,0-.84a.76.76,0,0,1,.39-.61,1.08,1.08,0,0,1,.68-.12,1,1,0,0,1,.45.12.66.66,0,0,1,.34.64Z"/><path class="cls-2" d="M5.42,2.19c0,.21,0,.42,0,.63s0,.12.09.11h0c.23,0,.23,0,.23.29v.29c0,.09,0,.11-.1.12s-.19-.06-.24,0A.93.93,0,0,0,5.4,4c0,1.18,0,2.36.08,3.55,0,.1,0,.14-.11.14H5c-.09,0-.11,0-.11-.14L4.81,6c0-.75,0-1.51,0-2.26,0-.09,0-.12-.11-.12-.25,0-.25,0-.25-.31V3.06c0-.08,0-.11.09-.11s.19,0,.24,0,0-.19,0-.3V2.11a.25.25,0,0,1,.07-.19l.53-.45c.06-.05.07,0,.07,0Z"/><path class="cls-2" d="M18.91,2.1v.63c0,.08,0,.11.08.11.25,0,.25,0,.25.31,0,.12,0,.26,0,.34s-.18,0-.27,0-.07.06-.06.12l0,1.6c0,.59,0,1.17,0,1.75,0,.14,0,.28,0,.43s0,.13-.1.12h-.43c-.09,0-.11,0-.11-.13,0-.41,0-.83,0-1.24l-.06-2.45c0-.13,0-.17-.15-.16s-.21.06-.21-.25V3c0-.08,0-.11.1-.12.25,0,.25,0,.25-.31V2a.19.19,0,0,1,.08-.18l.52-.45s0,0,.05,0,0,0,0,.07Z"/><path class="cls-2" d="M27.29,1.34V2.75c0,.07,0,.1.08.1.25,0,.25,0,.25.31,0,.09,0,.17,0,.25s0,.14-.12.14c-.24,0-.24,0-.23.29l.06,3a5.33,5.33,0,0,0,0,.56c0,.12,0,.14-.12.14h-.41c-.08,0-.11,0-.11-.13,0-.56,0-1.12,0-1.68s0-1.38-.05-2.07c0-.09,0-.11-.09-.11h-.09c-.17,0-.18,0-.17-.22V3c0-.08,0-.12.1-.12s.19,0,.23,0,0-.19,0-.29,0-.33,0-.5a.3.3,0,0,1,.11-.25Z"/><path class="cls-1" d="M22.47,5.17V3.88c0-.2.07-.29.23-.31h.13c.19,0,.26.08.26.31,0,.6,0,1.2,0,1.81v.76c0,.2-.09.31-.26.33a.38.38,0,0,1-.23,0,.25.25,0,0,1-.15-.27V5.17Z"/><path class="cls-1" d="M12.22,5.23c0,.43,0,.86,0,1.29a.27.27,0,0,1-.15.27.45.45,0,0,1-.28,0c-.16,0-.23-.15-.24-.35,0-.81-.05-1.63-.05-2.44,0-.4.24-.58.54-.4a.22.22,0,0,1,.12.21V5.22Z"/><path class="cls-1" d="M9.77,5.24c0,.41,0,.82,0,1.23s-.14.44-.38.4-.28-.14-.28-.38c0-.82,0-1.63,0-2.45,0-.16,0-.33.17-.39a.43.43,0,0,1,.38,0,.22.22,0,0,1,.11.22V5.24Z"/><path class="cls-1" d="M20.09,4.23c0-.15,0-.3,0-.45s.07-.29.23-.33.42.12.42.41V4.7c0,.08,0,.1-.09.1h-.5c-.07,0-.09,0-.08-.1V4.23Z"/><path class="cls-1" d="M14.65,4.25v.47c0,.07,0,.1-.07.1h-.53c-.06,0-.07,0-.07-.1,0-.31,0-.63,0-.94a.3.3,0,0,1,.34-.33.34.34,0,0,1,.32.36v.43Z"/><path class="cls-1" d="M24.88,4.27V3.8a.28.28,0,0,1,.17-.28c.25-.12.49.07.49.4v.83c0,.06,0,.1-.07.1h-.53c-.06,0-.08,0-.08-.09s0-.32,0-.49Z"/><path class="cls-1" d="M7.31,5.31V6.62A.33.33,0,0,1,6.92,7c-.19,0-.27-.16-.27-.39,0-.83-.05-1.65-.05-2.47V4c0-.17,0-.3.17-.36a.37.37,0,0,1,.43.08.31.31,0,0,1,.06.23c0,.32,0,.64,0,1,0,.14,0,.28,0,.43Z"/></svg>